<?xml version="1.0" standalone="no"?><!DOCTYPE svg PUBLIC "-//W3C//DTD SVG 1.1//EN" "http://www.w3.org/Graphics/SVG/1.1/DTD/svg11.dtd"><svg t="1742372254871" class="icon" viewBox="0 0 1239 1024" version="1.1" xmlns="http://www.w3.org/2000/svg" p-id="17154" xmlns:xlink="http://www.w3.org/1999/xlink" width="241.9921875" height="200"><path d="M1077.894737 0H161.684211a161.684211 161.684211 0 0 0-161.684211 161.684211v700.631578a161.684211 161.684211 0 0 0 161.684211 161.684211h916.210526a161.684211 161.684211 0 0 0 161.68421-161.684211V161.684211a161.684211 161.684211 0 0 0-161.68421-161.684211z m80.84210499 862.315789a80.842105 80.842105 0 0 1-80.84210499 80.842106H161.684211a80.842105 80.842105 0 0 1-80.842106-80.842106V161.684211a80.842105 80.842105 0 0 1 80.842106-80.842106h916.210526a80.842105 80.842105 0 0 1 80.84210499 80.842106zM242.526316 835.368421h134.73684199V296.421053H242.526316z m323.368421 0h134.736842V404.21052599h-134.736842z m296.421052 0h134.736843v-215.57894699h-134.736843z" fill="#e7c46c" p-id="17155"></path></svg>