<?xml version="1.0" standalone="no"?><!DOCTYPE svg PUBLIC "-//W3C//DTD SVG 1.1//EN" "http://www.w3.org/Graphics/SVG/1.1/DTD/svg11.dtd"><svg t="1742371931758" class="icon" viewBox="0 0 1024 1024" version="1.1" xmlns="http://www.w3.org/2000/svg" p-id="4235" xmlns:xlink="http://www.w3.org/1999/xlink" width="200" height="200"><path d="M875.605333 331.136L938.666667 450.090667V853.333333a42.666667 42.666667 0 0 1-42.666667 42.666667h-213.333333v-85.333333H341.333333v85.333333H128a42.666667 42.666667 0 0 1-42.666667-42.666667v-403.2l58.325334-110.378666L245.333333 416h488.874667l141.397333-84.864zM426.666667 554.666667H256v64h170.666667V554.666667z m341.333333 0h-170.666667v64h170.666667V554.666667z m-25.685333-426.666667a42.666667 42.666667 0 0 1 37.717333 22.698667l65.578667 123.776-129.194667 77.525333H266.666667L173.952 282.496 243.626667 150.741333A42.666667 42.666667 0 0 1 281.344 128h460.970667z" fill="#f4ea2a" p-id="4236"></path></svg>